<svg version="1.0" xmlns="http://www.w3.org/2000/svg" width="682.667" height="682.667" viewBox="0 0 512 512">
  <path d="M246.3 1c-4.7 1-9.8 3.4-10.9 5.2-.4.7-1.7 10.2-2.9 21.3l-2.1 20-13.9 1.8c-15.3 1.9-34.5 6.3-44.4 10.1-21.7 8.6-38.1 25.2-40.7 41.3-.3 2.2-1 4.6-1.4 5.2-.4.8-7 2.1-16.1 3.2-13.4 1.7-16.1 2.4-21.4 5.3-10.5 5.7-16.5 16-16.5 28.3 0 14.6 9 26.6 23.3 30.8l4.2 1.2.6 40.4c.7 46.2 1.3 54.3 4 57 2.9 2.9 8.3 2.5 10.8-.8 2-2.5 2.1-3.4 1.5-17.3l-.7-14.8 4.4-2.8c13.6-8.6 33.2-16.4 47.8-18.9 15.8-2.8 23.5-1.7 49.1 7 13.9 4.7 26.8 7.5 35 7.5s21.6-2.9 35.3-7.6c25.1-8.6 34-9.8 49.4-6.9 14.7 2.8 33.9 10.5 47.2 18.9l4.4 2.8-.7 17c-.8 21.1-3 52.5-5.2 76.7l-1.7 18.3-5.1-.6c-31.1-3.7-72-5.6-122.6-5.6-51.9 0-92 1.8-124.1 5.6l-5.6.6-.6-6.3c-.3-3.5-1.3-15.4-2.2-26.4-1.9-23.7-1.9-23.9-4.7-26.5s-5.8-2.5-9.3.2l-2.8 2.2.7 12.2c1.5 29.5 8.3 89.7 15.1 134.9 4.6 30.8 5.9 36.8 9.2 43.3 3.7 7.4 13.6 16.4 21 19.2 5.9 2.3 19.7 4.3 37.8 5.5 9.8.7 10.1.6 12.3-1.8 1.7-1.8 2.3-3.4 2-5.7-.5-5.7-3.1-6.6-23.8-8.5-20.2-1.7-24.9-3.1-30.8-8.8-5.7-5.4-7-9.4-10.7-31.9-4.8-29.7-12.1-85.5-11.3-86.3.5-.5 31.6-3.3 51.3-4.7 24.4-1.7 126.9-1.7 151 0 21.8 1.5 50.9 4.2 51.4 4.7.4.5-1.3 14.9-5.5 46.5-5.1 37.7-9.1 60.5-11.3 64.8-2.6 5-7.7 9.7-13.1 12.1-8.1 3.5-39.7 5.9-88.4 6.8-31.1.6-34.1.8-35.8 2.5-2.5 2.5-2.4 8 .3 10.4 2 1.8 4 1.9 33.3 1.8 48.9-.1 86.4-3.1 96.9-7.8 9.5-4.2 18.9-14.2 22.3-23.8 3.3-9.3 12.2-70.6 17.3-119.3 6.1-57.3 8.9-107 9.5-170l.1-15.9 3.1-.6c5.2-1.1 13.5-6.2 17.1-10.7 11.9-14.5 9-36.9-6.2-47.3-5.1-3.5-12.3-5.6-24.5-7-16.9-1.9-15.5-1.3-16.9-7.8-3.1-13.7-13.2-26.5-27.8-35-10.2-6-13.5-6.9-16.8-4.8-3.5 2.3-4.9 5.5-3.6 8.8.6 1.7 3.4 3.9 8.8 6.8 9.5 5.1 15.4 9.8 19.2 15.3 3.2 4.7 5.8 11.3 4.9 12.3-.4.3-9.6-.1-20.5-1.1-10.9-.9-28.8-2.2-39.8-2.8l-20-1.2-.7-12.5c-.3-6.9-.9-15.1-1.2-18.3-.4-4.2-.2-5.7.7-5.7.6 0 6.1.7 12 1.5 11.5 1.5 14.8 1.1 16.6-2.4 1.7-3.1 1.3-5.7-1.1-8.6-2.1-2.4-3.5-2.8-15.8-4.2-7.4-.9-13.6-1.7-13.7-1.8-.2-.1-1.2-9.1-2.3-20.1-1.8-17.7-2.3-20.1-4.3-22.1-4.3-4.3-18.6-6.4-29.4-4.3m-17.6 69.2c-.4 4-.9 12.3-1.3 18.4l-.7 11.1-22.1 1.2c-12.1.7-29.1 1.9-37.6 2.7-19.8 1.8-21 1.8-21-.1 0-3.3 4.7-11.3 9.5-16.1 11.3-11.3 30.9-18.9 59.5-22.9 15.7-2.2 14.4-2.7 13.7 5.7m-3.2 62c-.4 9.5-.8 17.4-.9 17.4 0 .1-9.3.7-20.6 1.4s-29 2-39.3 2.9c-16.4 1.5-19.1 2-20.9 3.9-2.6 2.5-2.6 7.6-.1 10.4 2 2.3 2.8 2.3 38.8-.6 9.9-.8 23.5-1.8 30.3-2.1l12.2-.7v45l-9.2-3c-5.1-1.6-12.2-3.6-15.8-4.4-19-4-45 1-70.3 13.7-5.3 2.7-10 4.9-10.2 4.9-.3 0-.5-12.6-.5-28v-28.1l-2.5-2.4c-1.9-2-3.5-2.5-7.1-2.5-14.2 0-22.9-14.2-16.2-26.2 3.3-5.9 7.3-7.8 19.4-9.4 28.6-3.7 84.5-8.6 107.2-9.2l6.4-.2zm45.5-11.5c0 3.2.3 10.9.7 17l.6 11.3h-32.6l.7-6.1c.3-3.4.6-11.1.6-17V115h30zm38-4.7c23.8 1.5 49.2 3.7 75.5 6.6 26.5 2.9 30 4 34 10.8 7.1 12.2-1.4 26.6-15.7 26.6-3 0-5.4.7-6.9 1.9l-2.4 1.9-.3 28.6c-.2 15.7-.5 28.6-.7 28.6-.3 0-4.9-2.2-10.2-4.9-25.3-12.7-51.3-17.7-70.3-13.7-3.6.8-10.7 2.8-15.7 4.4l-9.3 3v-45l12.3.7c6.7.3 20.3 1.3 30.2 2.1 36.3 2.9 36.8 2.9 38.9.5 2.6-2.8 2.5-7.7-.2-10.3-1.8-1.9-4.4-2.4-20.9-3.9-10.3-.9-28-2.2-39.3-2.9s-20.6-1.3-20.6-1.4c-.1 0-.4-7.9-.7-17.4l-.5-17.2h3.1c1.8 0 10.6.5 19.7 1m-37 73.5c0 22.5-.2 24.6-1.7 25.3-1 .4-7.4.7-14.3.7s-13.3-.3-14.2-.7c-1.6-.7-1.8-2.8-1.8-25.3V165h32z"/>
  <path d="M183.6 248.4c-11.3 4.2-18.5 19.8-12.1 26.1 1.3 1.4 3.6 2.5 5 2.5 3.2 0 7.5-4.1 7.5-7.2 0-4.2 2.7-6.8 7-6.8s7 2.6 7 6.8c0 3 4.3 7.2 7.3 7.2 1.3 0 3.6-.9 5.1-2.1 6.4-5 .6-20.2-9.7-25.6-4.2-2.1-12.5-2.6-17.1-.9m131-.4c-11.8 3.6-19.9 19.8-13.1 26.5 1.3 1.4 3.6 2.5 5 2.5 3.3 0 7.5-4.1 7.5-7.3 0-3.9 3.2-7 7-7s7 3.1 7 6.8c0 3.9 3.3 6.9 7.5 6.9 7.5 0 9.7-7.6 5-17.1-4.8-9.6-15.6-14.3-25.9-11.3m-76.5 10.5c-15 4.2-21.6 15.3-19.1 32.3 1.9 13.8 10.3 25.8 21.9 31.5 5.8 2.8 7.5 3.2 15.1 3.2 7.1 0 9.4-.4 14-2.6 14.8-6.9 23.2-20.7 23.3-37.9 0-6.9-.4-9.4-2.3-13.3-2.7-5.6-7.6-10-13.9-12.3-6.5-2.4-31.6-2.9-39-.9m6.6 121.5c-9.2 2.4-16.9 8.8-20.9 17.5-3.5 7.6-3.3 19.1.5 26.7 11.6 23.5 45.4 22.8 56.5-1.2 5.2-11.1 2.5-25.6-6.2-34.3-7.5-7.6-20-11.2-29.9-8.7m16.3 17.2c6.9 4.7 8.9 13.9 4.7 21.2-2.7 4.8-7.8 7.6-13.8 7.6-6.1 0-10.7-3.1-13.7-9.2-3.8-7.7-1.5-15.2 6.2-19.9 4.4-2.7 12.4-2.5 16.6.3m45.9-14c-4.8 1.6-6.1 8.5-2.3 12.3 2.2 2.2 8 1.9 10.4-.5 5.5-5.5-.6-14.3-8.1-11.8m37.7 16c-.9 1.2-1.6 3.4-1.6 4.8 0 4.4 2.6 7 7 7 3 0 4.3-.6 5.9-2.6 1.2-1.5 2.1-3.4 2.1-4.4s-.9-2.9-2.1-4.4c-2.7-3.5-9-3.7-11.3-.4m-36.2 20.6c-7.5 2.7-12.8 7.3-16.3 14.4-8.2 16.2.2 35.4 17.7 40.4 14.1 4.1 30.1-3.9 34.6-17.3 2-5.9 2-14.7 0-20.6-4.7-13.8-22-22-36-16.9m15.7 15.7c6.6 3.5 8.8 12.3 4.6 18.6-2.8 4.2-6 5.9-11.3 5.9-5.7 0-10.5-3.4-12.4-8.8-1.3-3.7-1.3-4.7 0-8.4 2.7-7.7 11.7-11.1 19.1-7.3m-144.9-7.9c-18.5 9.2-17.4 37.1 1.8 45.2 5 2.1 14.7 1.9 20.1-.5 6-2.7 11.4-9 13.3-15.4 2-6.5 2-8.3.1-14.5-4.4-14.7-21.3-21.8-35.3-14.8m17.9 15.3c6.2 6.2 2 16.1-6.8 16.1-4.4 0-9.3-4.5-9.3-8.7.1-9.1 9.9-13.6 16.1-7.4m36.1 22.4c-3.1 3.3-2.9 8 .4 10.6 5.4 4.2 11.8 1.3 11.8-5.4 0-6.8-7.7-10-12.2-5.2"/>
</svg>
